<?xml version="1.0" standalone="no"?>
<!DOCTYPE svg PUBLIC "-//W3C//DTD SVG 20010904//EN"
 "http://www.w3.org/TR/2001/REC-SVG-20010904/DTD/svg10.dtd">
<svg version="1.0" xmlns="http://www.w3.org/2000/svg"
 width="256.000000pt" height="256.000000pt" viewBox="0 0 256.000000 256.000000"
 preserveAspectRatio="xMidYMid meet">
<metadata>
Created by potrace 1.14, written by Peter Selinger 2001-2017
</metadata>
<g transform="translate(0.000000,256.000000) scale(0.100000,-0.100000)"
fill="#000000" stroke="none">
<path d="M1138 2535 c-2 -1 -21 -5 -43 -9 -269 -39 -506 -158 -699 -350 -199
-196 -295 -378 -361 -681 -4 -16 -8 -100 -10 -185 -3 -165 10 -263 54 -403 70
-227 222 -449 406 -595 94 -75 123 -95 128 -90 3 1 13 -4 23 -13 31 -26 179
-99 202 -99 7 0 12 -4 12 -8 0 -4 8 -8 18 -9 18 -1 37 -6 62 -16 16 -6 97 -24
140 -31 14 -3 25 -5 25 -6 0 -1 29 -3 65 -6 35 -2 70 -6 76 -8 7 -3 15 -2 18
1 10 10 56 10 56 0 0 -4 5 -5 10 -2 9 6 40 9 163 18 15 1 27 5 27 10 0 4 14 5
31 2 19 -4 28 -2 24 5 -5 8 30 16 58 11 4 0 7 3 7 8 0 5 8 8 18 7 9 -2 19 1
22 5 3 5 15 10 27 12 12 1 29 9 39 17 11 9 15 10 10 3 -5 -9 -2 -11 8 -7 9 3
16 11 16 17 0 6 3 8 6 4 3 -3 25 5 49 18 23 13 45 21 49 18 3 -4 6 -1 6 6 0
10 52 37 57 29 1 -2 9 6 17 17 9 11 16 16 16 11 0 -4 9 2 21 15 11 13 17 17
13 9 -4 -8 6 -1 23 15 58 56 81 74 87 68 3 -4 6 1 6 10 0 10 3 16 8 15 11 -4
51 39 44 48 -4 4 1 4 11 1 10 -4 16 -3 13 2 -7 11 29 53 38 44 3 -3 6 1 6 11
0 9 7 19 15 22 8 4 15 12 15 20 0 8 5 14 10 14 6 0 10 7 10 15 0 8 11 25 25
37 13 11 22 25 19 29 -3 5 4 14 15 20 10 7 17 19 14 26 -3 7 0 13 7 13 6 0 8
5 5 10 -3 6 1 13 9 16 9 3 14 10 11 14 -3 5 -1 11 5 15 5 3 10 15 10 26 0 13
4 18 12 13 6 -4 8 -3 5 2 -3 6 0 23 8 39 13 31 27 64 30 78 2 4 3 8 5 10 1 1
3 9 5 17 2 8 7 26 10 40 6 23 12 54 14 73 1 5 6 5 11 2 13 -8 8 18 -5 27 -6 5
-6 8 1 8 6 0 10 10 9 22 -1 13 0 27 3 32 3 6 7 42 9 80 2 39 5 76 8 83 2 7 0
15 -6 19 -7 4 -6 10 1 19 6 7 7 15 3 18 -4 3 -8 30 -8 61 0 31 -2 56 -6 56 -3
0 -6 15 -6 33 0 17 -7 56 -16 85 -9 28 -13 52 -10 52 3 0 0 7 -7 15 -7 8 -10
21 -7 29 3 8 1 16 -4 18 -5 2 -11 13 -12 26 0 12 -6 22 -11 22 -5 0 -7 3 -3 6
5 5 -90 203 -103 214 -4 3 -26 33 -49 68 -40 59 -156 183 -226 242 -132 111
-391 232 -545 255 -25 4 -49 9 -54 12 -9 6 -322 14 -328 8z"/>
</g>
</svg>
