<svg width="1146" height="832" viewBox="0 0 1146 832" fill="none" xmlns="http://www.w3.org/2000/svg">
<g opacity="0.1">
<path d="M-317.74 426.896C-296.862 472.205 -257.198 496.341 -206.633 494.121C-146.541 491.55 -74.465 453.641 -3.99797 410.846C66.469 368.052 138.158 319.458 205.989 292.589C273.889 265.765 339.417 262.96 370.328 309.591C389.7 338.866 394.287 385.465 415.599 412.294C483.047 497.13 682.175 355.179 745.395 445.46C772.406 484.016 767.053 557.773 789.277 602.193C818.267 660.369 897.445 657.504 975.984 595.456" stroke="#8223F8" stroke-width="2.19441" stroke-miterlimit="10"/>
<path d="M-312.643 412.339C-292.869 447.475 -261.088 470.295 -222.336 477.613C-214.768 479.116 -206.832 479.885 -198.774 480.151C-165.495 481.105 -129.315 471.908 -92.7169 457.561C-64.7528 446.644 -36.5095 432.81 -7.91681 417.651C8.87875 408.753 25.9364 399.441 43.466 389.847C83.7157 367.564 126.097 342.377 167.046 321.31C178.826 315.231 190.414 309.611 201.809 304.449C230.332 291.565 258.279 282.378 283.693 278.74C319.628 273.642 350.654 279.55 370.427 303.085C391.458 328.189 398.492 370.923 420.625 396.918C423.964 400.771 427.495 404.166 431.201 407.285C455.483 427.1 488.746 430.557 526.132 427.343C585.804 422.186 655.978 399.507 705.847 410.767C722.977 414.648 737.643 422.577 748.832 436.619C771.07 464.613 774.854 512.638 785.925 553.48C789.23 565.432 793.095 576.966 798.376 586.881C828.292 644.677 904.011 646.969 976.678 593.58" stroke="#8223F8" stroke-width="2.19441" stroke-miterlimit="10"/>
<path d="M-307.626 397.915C-285.527 430.462 -252.436 452.759 -214.103 462.131C-206.569 463.999 -198.913 465.364 -190.978 466.133C-158.589 469.424 -124.174 463.943 -90.3021 454.058C-64.3474 446.316 -38.6903 436.259 -11.9148 424.59C3.79742 417.713 19.9291 410.328 37.1792 402.104C76.5906 383.158 120.405 357.718 162.263 334.906C174.235 328.369 186.032 322.108 197.794 316.211C226.772 301.682 255.015 290.168 280.743 284.023C317.15 275.549 349.136 276.845 370.464 296.53C393.173 317.282 402.618 356.516 425.502 381.633C428.929 385.348 432.53 388.787 436.393 391.812C460.885 411.759 492.313 418.116 528.686 416.968C586.61 415.345 657.046 393.799 707.999 403.811C725.391 407.278 740.634 414.605 752.434 427.68C775.965 453.786 782.003 499.177 794.455 538.766C798.163 550.393 802.36 561.556 807.71 571.516C838.57 628.749 910.724 636.519 977.678 591.694" stroke="#8223F8" stroke-width="2.19441" stroke-miterlimit="10"/>
<path d="M-302.614 383.493C-278.103 413.313 -243.876 435.362 -205.892 446.834C-198.394 449.066 -190.86 450.934 -183.204 452.299C-151.549 457.832 -118.986 456.206 -87.8223 450.601C-63.9645 446.172 -40.7363 439.798 -15.8305 431.393C-1.27151 426.493 14.0739 421.124 30.9747 414.226C69.4777 398.571 114.866 372.967 157.492 348.321C169.656 341.326 181.82 334.33 193.635 327.886C223.154 311.573 251.607 297.872 277.718 289.263C314.614 277.231 348.679 272.303 370.513 289.795C393.519 308.221 406.686 341.883 430.392 366.166C433.906 369.744 437.664 373.089 441.44 376.252C466.141 396.332 495.735 405.587 530.937 406.599C587.114 408.51 657.655 388.191 709.831 397.044C727.555 400.141 743.235 406.777 755.717 418.931C780.611 443.193 788.834 485.906 802.596 524.198C806.636 535.455 811.147 546.43 816.655 556.296C848.441 613.149 917.135 626.076 978.287 589.954" stroke="#8223F8" stroke-width="2.19441" stroke-miterlimit="10"/>
<path d="M-297.513 368.938C-270.661 395.986 -235.227 417.831 -197.576 431.22C-190.269 433.911 -182.77 436.143 -175.324 438.149C-144.49 446.063 -113.849 448.247 -85.2365 446.828C-63.4755 445.712 -42.5888 442.884 -19.7274 438.018C-6.25178 435.139 8.16765 431.697 24.789 426.169C62.541 413.713 109.275 387.994 152.722 361.741C165.236 354.193 177.452 346.65 189.564 339.428C219.537 321.469 248.357 305.486 274.783 294.369C312.08 278.918 345.882 271.31 370.634 283.108C396.453 295.388 410.983 327.205 435.353 350.749C439.024 354.233 442.783 357.578 446.646 360.603C471.557 380.816 499.315 392.97 533.504 396.047C588.022 401.355 658.668 382.262 711.997 389.912C730.053 392.638 746.169 398.585 759.263 409.772C785.433 432.328 795.927 472.225 810.913 509.357C815.355 520.289 820.111 531.033 825.776 540.805C858.489 597.277 923.705 615.544 979.003 587.898" stroke="#8223F8" stroke-width="2.19441" stroke-miterlimit="10"/>
<path d="M-292.499 354.513C-263.235 378.834 -226.508 400.337 -189.433 415.875C-182.161 418.93 -174.785 421.665 -167.548 424.312C-137.535 434.606 -108.659 440.507 -82.7551 443.367C-63.091 445.565 -44.7032 446.375 -23.6589 444.999C-11.2666 444.142 2.31416 442.49 18.5687 438.469C55.4125 429.305 103.562 403.515 148.006 375.379C160.711 367.373 173.207 359.234 185.458 351.327C215.816 331.677 245.002 313.413 271.742 299.788C309.528 280.78 344.117 268.835 370.668 276.552C398.076 284.617 415.036 312.752 440.227 335.462C443.985 338.807 447.901 342.059 451.747 345.266C476.868 365.612 502.879 380.527 535.88 385.945C588.825 394.512 659.558 376.828 713.884 383.368C732.272 385.725 748.825 390.981 762.6 401.246C790.133 421.958 802.812 459.177 819.178 495.056C824.022 505.662 829.022 516.174 834.915 525.897C868.484 581.944 930.31 605.413 979.807 586.469" stroke="#8223F8" stroke-width="2.19441" stroke-miterlimit="10"/>
<path d="M-287.483 340.091C-255.965 361.779 -217.945 382.941 -181.132 400.439C-173.895 403.859 -166.728 407.235 -159.596 410.202C-130.474 422.833 -103.363 432.45 -80.0972 439.634C-62.3728 445.052 -46.5012 449.683 -27.4839 451.665C-16.1749 452.828 -3.52018 453.103 12.455 450.453C48.5477 444.487 98.0431 418.582 143.308 388.839C156.293 380.237 168.981 371.639 181.46 362.909C212.358 341.475 241.841 320.886 268.878 304.935C307.135 282.551 342.457 266.043 370.861 269.906C399.702 273.851 419.317 298.253 445.26 320.085C449.175 323.336 453.021 326.544 457.025 329.658C482.425 350.18 506.531 367.95 538.449 375.389C589.646 387.49 660.485 371.033 716.051 376.231C734.789 378.036 751.832 382.828 766.218 392.127C795.114 410.995 809.977 445.536 827.654 480.118C832.83 490.354 838.233 500.541 844.195 510.308C878.69 565.975 936.969 594.738 980.839 584.221" stroke="#8223F8" stroke-width="2.19441" stroke-miterlimit="10"/>
<path d="M-282.385 325.536C-248.455 344.496 -209.299 365.411 -172.905 384.964C-165.703 388.748 -158.728 392.583 -151.806 396.19C-123.505 411.201 -98.2281 424.492 -77.6011 435.999C-61.9735 444.73 -48.6181 453.182 -31.4705 458.428C-21.2448 461.613 -9.51613 463.815 6.09225 462.673C41.2766 459.999 92.2752 433.885 138.449 402.397C151.696 393.38 164.611 383.96 177.212 374.727C208.565 351.647 238.344 328.732 265.696 310.273C304.372 284.288 340.549 263.488 370.665 263.407C400.938 263.232 423.227 283.719 449.904 304.855C453.907 307.969 457.91 311.082 461.896 314.378C487.419 335.172 509.778 355.703 540.595 365.345C590.132 380.843 661.146 365.656 717.708 369.745C736.778 371.18 754.257 375.282 769.325 383.658C799.584 400.682 816.632 432.546 835.62 465.831C841.197 475.741 846.845 485.695 852.964 495.369C888.386 550.655 943.205 584.576 981.204 582.717" stroke="#8223F8" stroke-width="2.19441" stroke-miterlimit="10"/>
<path d="M-277.37 311.114C-241.029 327.347 -200.649 347.875 -164.674 369.483C-157.594 373.771 -150.654 377.969 -144.012 382.173C-116.532 399.565 -93.02 416.572 -75.1714 432.315C-61.5533 444.221 -50.7143 456.494 -35.3664 465.048C-26.224 470.254 -15.334 474.246 -0.0923828 474.611C34.341 475.136 86.6853 448.907 133.767 415.674C147.294 406.06 160.402 396.182 173.229 386.126C205.124 361.262 235.113 336.159 262.848 315.236C302.013 285.693 338.819 260.651 370.962 256.439C402.51 252.237 427.613 268.898 455.11 289.201C459.201 292.177 463.274 295.334 467.26 298.63C492.992 319.556 513.517 342.986 543.25 354.651C591.04 373.682 662.159 359.722 719.962 362.469C739.364 363.534 757.28 366.946 773.03 374.401C804.582 389.536 823.901 418.584 844.165 450.936C850.074 460.476 856.036 470.243 862.4 479.685C898.766 534.408 950.021 573.807 982.305 580.512" stroke="#8223F8" stroke-width="2.19441" stroke-miterlimit="10"/>
<path d="M-272.357 296.692C-233.674 310.153 -192.088 330.479 -156.462 354.186C-149.487 358.793 -142.757 363.633 -136.167 368.384C-109.421 388.018 -87.8309 408.836 -72.6208 428.903C-61.0996 444.121 -52.6894 460.078 -39.2985 472.033C-31.2395 479.26 -21.2756 485.179 -6.31339 486.915C27.2116 490.731 81.0418 464.476 128.893 429.41C142.612 419.338 155.999 408.862 168.966 398.122C201.245 371.567 231.6 344.183 259.72 320.797C299.356 287.879 336.79 258.594 370.82 250.162C403.714 241.979 431.49 254.724 459.896 274.055C464.144 276.937 468.304 279.957 472.36 283.297C498.302 304.356 517.079 330.547 545.625 344.553C591.755 366.981 662.979 354.247 721.848 355.929C741.512 356.58 760.005 359.39 776.296 365.834C809.211 379.125 830.715 405.495 852.289 436.55C858.688 445.627 864.807 455.3 871.399 464.692C908.69 519.035 956.485 563.591 982.969 578.998" stroke="#8223F8" stroke-width="2.19441" stroke-miterlimit="10"/>
<path d="M-267.255 282.134C-226.16 292.868 -183.438 312.945 -148.144 338.569C-141.204 343.542 -134.596 348.884 -128.285 354.231C-102.36 376.246 -82.6049 400.736 -70.0333 425.127C-60.6089 443.659 -54.7151 463.436 -43.1939 478.655C-36.1483 487.948 -27.1803 495.75 -12.4975 498.856C20.2066 505.826 75.4525 479.5 124.212 442.689C138.193 432.203 151.72 421.042 164.897 409.661C197.629 381.461 228.282 351.75 256.715 325.856C296.84 289.38 334.903 255.853 370.89 243.247C405.111 231.263 435.736 239.817 464.806 258.409C469.141 261.152 473.372 264.217 477.427 267.557C503.58 288.748 520.522 317.838 547.966 334.048C592.35 360.01 663.836 348.409 723.788 348.844C743.784 349.125 762.714 351.244 779.687 356.766C813.965 368.213 837.653 391.905 860.538 421.663C867.269 430.37 873.79 439.717 880.451 449.153C918.669 503.116 962.917 552.968 983.616 576.895" stroke="#8223F8" stroke-width="2.19441" stroke-miterlimit="10"/>
<path d="M-262.241 267.71C-218.892 275.811 -174.79 295.409 -140.002 323.226C-133.184 328.701 -126.681 334.363 -120.58 340.351C-95.546 364.702 -77.4854 392.953 -67.6223 421.624C-60.2074 443.331 -56.7599 466.974 -47.1957 485.594C-41.2334 496.908 -33.0341 506.544 -18.7881 511.113C13.165 521.282 69.7567 494.841 119.425 456.284C133.685 445.202 147.492 433.445 160.878 421.423C194.153 391.439 225.015 359.541 253.832 331.183C294.358 291.288 333.032 253.7 371.063 236.78C406.542 220.952 439.928 225.454 469.82 243.212C474.312 245.862 478.63 248.788 482.756 252.172C509.187 273.541 524.225 305.486 550.586 323.716C593.222 353.213 664.814 342.839 725.919 342.07C746.247 341.981 765.701 343.272 783.268 348.01C818.909 357.612 844.782 378.627 868.96 407.27C876.093 415.651 882.859 424.767 889.677 434.109C928.752 487.647 969.609 542.7 984.507 575.33" stroke="#8223F8" stroke-width="2.19441" stroke-miterlimit="10"/>
<path d="M-257.226 253.289C-211.466 258.662 -166.227 278.012 -131.701 307.79C-124.918 313.63 -118.537 319.795 -112.716 326.379C-88.5029 353.111 -72.2769 385.034 -65.0523 418.028C-59.647 442.911 -58.8031 470.513 -51.1086 492.397C-46.317 505.87 -38.9563 517.296 -24.9897 523.235C6.14241 536.557 64.1498 510.046 114.639 469.882C129.092 458.341 143.178 445.988 156.704 433.281C190.363 401.606 221.661 367.471 250.793 336.605C291.79 293.335 331.163 251.549 371.098 230.228C407.905 210.6 444.051 211.048 474.695 227.928C479.275 230.44 483.662 233.41 487.788 236.795C514.429 258.296 527.632 293.14 552.893 313.574C593.939 346.512 665.565 337.32 727.824 335.347C748.414 334.844 768.375 335.489 786.624 339.305C823.628 347.063 851.684 365.4 877.173 392.745C884.708 400.801 891.719 409.685 898.694 418.933C938.695 472.091 976.076 532.484 985.19 573.634" stroke="#8223F8" stroke-width="2.19441" stroke-miterlimit="10"/>
<path d="M-252.122 238.728C-204.02 241.329 -157.576 260.476 -123.469 292.309C-116.721 298.513 -110.55 305.319 -104.85 312.406C-81.4585 341.518 -66.9099 377.021 -62.5685 414.57C-59.26 442.766 -60.9324 474.189 -55.0201 499.199C-51.3119 514.693 -44.7899 527.908 -31.1901 535.355C-0.966309 551.97 58.5444 525.249 109.942 483.34C124.745 471.247 138.883 458.347 152.706 444.861C186.906 411.403 218.414 375.08 247.86 341.706C289.346 294.878 329.312 249.215 371.222 223.535C409.269 200.246 448.281 196.321 479.658 212.505C484.325 214.879 488.871 217.756 492.996 221.14C519.76 242.912 531.215 280.517 555.462 303.016C594.761 339.489 666.65 331.43 729.905 328.347C750.915 327.336 771.295 327.474 790.085 330.279C828.452 336.193 858.693 351.852 885.493 377.9C893.36 385.586 900.685 394.282 907.888 403.481C948.815 456.258 982.736 521.808 986.048 571.661" stroke="#8223F8" stroke-width="2.19441" stroke-miterlimit="10"/>
<path d="M-247.112 224.308C-196.598 224.183 -148.93 242.944 -115.242 276.831C-108.617 283.538 -102.55 290.664 -97.0605 298.392C-74.4024 329.747 -61.7757 369.06 -60.0729 410.933C-58.7739 442.304 -63.0499 477.686 -58.9373 506.004C-56.4697 523.613 -50.7166 538.662 -37.3961 547.479C-7.92336 567.292 52.8457 540.594 105.082 496.896C120.077 484.345 134.494 470.848 148.457 456.677C183.112 421.572 214.916 382.924 244.746 347.087C286.634 296.839 327.281 247.159 371.095 217.079C410.54 190.033 452.243 182.011 484.372 197.317C489.196 199.598 493.671 202.43 497.937 205.903C524.911 227.807 534.531 268.312 557.607 292.97C595.159 332.977 667.153 326.144 731.649 321.72C752.99 320.339 773.808 319.787 793.279 321.67C833.097 325.601 865.435 338.721 893.528 363.654C901.796 371.014 909.524 379.385 916.727 388.583C958.598 440.798 988.953 511.826 986.482 570.198" stroke="#8223F8" stroke-width="2.19441" stroke-miterlimit="10"/>
<path d="M-242.098 209.891C-189.26 207.176 -140.299 225.595 -107.03 261.538C-100.509 268.565 -94.4952 276.238 -89.285 284.562C-67.5179 318.253 -56.4987 361.189 -57.5916 407.48C-58.2322 442.07 -65.2517 481.323 -62.9389 512.949C-61.5546 532.579 -56.6401 549.417 -43.7738 559.88C-15.122 582.847 47.1328 556.123 100.208 510.636C115.395 497.626 130.109 483.351 144.282 468.539C179.478 431.65 211.492 390.814 241.706 352.513C284.152 298.752 325.41 245.012 371.129 210.53C411.901 179.684 456.295 167.565 489.245 182.038C494.157 184.18 498.79 186.918 503.055 190.391C530.309 212.473 538.024 255.832 560.087 282.556C595.979 325.959 668.148 320.398 733.64 314.864C755.314 313.113 776.568 311.87 796.721 312.831C837.831 314.874 872.424 325.36 901.827 348.996C910.428 355.986 918.47 364.169 925.917 373.136C968.715 424.97 995.611 501.155 987.425 568.092" stroke="#8223F8" stroke-width="2.19441" stroke-miterlimit="10"/>
<path d="M-236.995 195.329C-181.815 189.842 -131.648 208.058 -98.7112 245.917C-92.2252 253.309 -86.4907 261.579 -81.4028 270.406C-60.4568 306.477 -51.2722 353.085 -55.0736 403.656C-57.8111 441.559 -67.3469 484.634 -66.9038 519.523C-66.6028 541.175 -62.6143 559.94 -50.0275 571.773C-22.1966 597.894 41.474 571.099 95.4576 523.866C110.994 510.304 125.831 495.526 140.143 480.03C175.723 441.451 208.174 398.378 238.632 357.524C281.48 300.344 323.489 242.632 371.112 203.748C413.195 169.285 460.454 152.792 494.139 166.57C499.208 168.618 503.84 171.356 508.175 174.873C535.639 197.088 541.432 243.484 562.412 272.229C596.469 319.305 668.83 314.832 735.563 307.956C757.499 305.791 779.33 303.947 800.094 303.941C842.568 304.14 879.345 311.948 910.059 334.287C919.062 340.951 927.348 348.902 934.953 357.776C978.677 409.229 1002.03 490.71 988.125 566.211" stroke="#8223F8" stroke-width="2.19441" stroke-miterlimit="10"/>
<path d="M-231.981 180.908C-174.39 172.694 -122.999 190.525 -90.4988 230.621C-84.1351 238.516 -78.4355 247.15 -73.4699 256.48C-53.345 294.931 -45.9251 345.257 -52.435 400.107C-57.1819 441.185 -69.234 488.081 -70.5905 526.278C-71.4603 550.089 -68.2231 570.505 -56.003 583.846C-28.9231 613.165 36.0932 586.256 90.8981 537.416C106.627 523.396 121.743 508.021 136.283 491.701C172.317 451.477 205.064 406.078 235.906 362.761C279.243 302.023 321.915 240.477 371.46 197.009C415.011 158.834 464.822 138.156 499.414 150.962C504.571 152.872 509.361 155.517 513.696 159.034C541.369 181.381 545.328 230.676 565.294 261.487C597.604 312.097 670.158 308.712 737.957 300.772C760.224 298.237 782.579 295.564 803.868 294.73C847.792 292.947 886.666 298.215 918.761 319.301C928.183 325.457 936.697 333.359 944.459 342.138C989.039 393.167 1008.91 479.988 989.226 564.009" stroke="#8223F8" stroke-width="2.19441" stroke-miterlimit="10"/>
<path d="M-226.898 166.531C-166.965 155.546 -114.368 173.173 -82.1997 215.186C-75.8709 223.445 -70.3635 232.538 -65.6075 242.508C-46.3037 283.34 -40.7183 337.338 -49.8667 396.512C-56.6407 440.948 -71.279 491.62 -74.5052 533.081C-76.4582 558.913 -74.0597 581.119 -62.2064 595.968C-35.8601 628.303 30.3973 601.599 86.1981 550.876C102.206 536.259 117.445 520.382 132.194 503.422C168.77 461.413 201.726 413.826 232.883 368.001C276.621 303.844 320.202 238.233 371.493 190.457C416.441 148.526 469.031 123.612 504.288 135.679C509.532 137.451 514.391 140.14 518.796 143.701C546.679 166.181 548.803 218.375 567.669 251.389C598.231 305.534 671.048 303.282 740 294.138C762.6 291.233 785.391 287.87 807.362 286.114C852.579 282.443 893.794 284.939 927.025 305.004C936.849 310.835 945.695 318.366 953.597 327.234C999.103 377.882 1015.51 469.86 990.029 562.584" stroke="#8223F8" stroke-width="2.19441" stroke-miterlimit="10"/>
<path d="M-221.797 151.97C-159.54 138.395 -105.72 155.636 -73.9706 199.705C-67.6767 208.328 -62.3789 218.062 -57.8151 228.491C-39.4022 271.659 -35.5117 329.418 -47.3686 392.871C-56.2394 440.62 -73.4638 495.07 -78.4898 539.838C-81.5961 567.647 -80.0537 591.825 -68.4798 608.044C-42.9719 643.715 24.7188 616.758 81.3409 564.428C97.611 549.397 113.147 532.741 128.035 515.096C165.065 471.441 198.406 421.391 229.859 373.24C274.086 305.525 318.33 236.08 371.544 183.72C417.96 138.078 473.1 108.979 509.178 120.211C514.58 121.89 519.527 124.44 523.932 128.002C551.937 150.753 552.314 205.708 570.009 240.881C598.911 298.422 671.745 297.535 741.851 287.187C764.713 283.868 788.011 279.859 810.663 277.181C857.243 271.666 900.643 271.484 935.185 290.252C945.411 295.757 954.501 303.057 962.56 311.831C1008.99 362.099 1021.93 459.416 990.658 560.66" stroke="#8223F8" stroke-width="2.19441" stroke-miterlimit="10"/>
<path d="M-216.783 137.55C-152.184 121.203 -97.1578 138.241 -65.6703 184.27C-59.5686 193.352 -54.2358 203.495 -49.9515 214.52C-32.2724 259.931 -30.3039 321.5 -44.7993 389.277C-55.6796 440.201 -75.5077 498.61 -82.3334 546.687C-86.6104 576.655 -85.8367 602.666 -74.6122 620.211C-49.9253 659.036 19.1811 632.008 76.6419 577.889C93.1042 562.399 108.919 545.147 124.018 526.861C161.519 481.378 195.139 429.184 226.977 378.57C271.675 307.479 316.757 233.925 371.648 177.213C419.531 127.859 477.293 94.6182 514.123 104.973C519.611 106.513 524.628 109.108 529.103 112.714C557.388 135.642 555.86 193.452 572.542 230.691C599.697 291.766 672.793 292.012 743.895 280.554C767.089 276.866 790.824 272.166 814.158 268.566C862.101 261.206 907.685 258.347 943.607 275.861C954.165 280.997 963.57 288.109 971.787 296.789C1019.16 346.494 1028.62 449.152 991.479 559.054" stroke="#8223F8" stroke-width="2.19441" stroke-miterlimit="10"/>
<path d="M-211.77 123.13C-144.76 104.056 -88.5101 120.708 -57.4417 168.792C-26.3733 216.877 -20.8884 295.946 -42.3016 385.64C-63.3305 473.643 -109.123 582.517 -80.8861 632.289C-56.9502 674.313 13.572 647.214 71.8715 591.306C130.171 535.397 178.783 458.277 223.97 383.629C269.157 308.981 315.06 231.5 371.698 170.479C428.336 109.459 499.678 69.1514 534.238 97.0179C562.733 120.079 559.37 180.788 574.951 220.23C600.446 284.702 673.648 286.174 745.903 273.513C818.158 260.852 896.599 237.025 951.766 261.112C1025.5 293.468 1042.51 417.921 992.195 556.995" stroke="#8223F8" stroke-width="2.19441" stroke-miterlimit="10"/>
<path d="M-207.052 115.675C-140.129 95.9656 -83.7745 111.524 -51.885 158.001C-39.734 175.938 -31.113 198.215 -26.3192 224.064C-18.6387 265.467 -20.7797 315.735 -32.9528 370.095C-47.9028 437.197 -77.6201 516.802 -78.187 573.093C-78.3414 589.43 -75.9967 603.675 -70.1218 615.127C-48.0908 658.458 18.1673 635.621 75.1217 584.468C118.375 545.525 158.2 492.812 194.86 437.516C206.813 419.559 218.503 401.243 229.948 383.158C276.604 309.44 324.132 232.794 381.749 172.393C438.3 113.058 508.593 73.6332 543.486 100.356C572.382 122.318 570.627 180.951 586.242 220.029C611.703 284.092 680.728 289.687 748.369 281.84C755.938 281.023 763.611 279.886 771.196 278.886C832.073 270.432 894.82 258.714 940.794 282.783C952.453 288.808 962.592 297.545 971.299 308.082C1013.94 360.784 1020 464.775 983.598 573.982" stroke="#8223F8" stroke-width="2.19441" stroke-miterlimit="10"/>
<path d="M-202.247 108.081C-135.412 87.7365 -78.8651 102.063 -46.2416 147.071C-33.8111 164.412 -24.8407 186.137 -19.6101 211.295C-11.318 251.732 -12.4628 300.89 -23.5874 354.366C-37.2441 420.354 -65.511 498.75 -66.5497 555.323C-66.8439 571.571 -64.8138 586.003 -59.4982 597.875C-39.3022 642.558 22.7617 624.028 78.2487 577.36C120.733 541.797 161.834 490.472 199.684 435.928C211.986 418.192 224.095 400.141 235.89 382.278C284.172 309.395 333.239 233.722 391.677 174.035C447.984 116.478 517.298 77.9814 552.627 103.241C581.925 124.103 581.795 180.478 597.428 219.373C622.871 282.845 687.702 292.747 750.8 289.758C757.879 289.405 764.958 289.051 772.054 288.516C828.65 284.505 886.87 277.463 929.855 304.087C940.781 310.809 950.291 319.921 958.35 331.015C998.509 385.626 1005.83 488.094 974.949 590.742" stroke="#8223F8" stroke-width="2.19441" stroke-miterlimit="10"/>
<path d="M-197.458 100.672C-130.867 79.7856 -74.0586 92.9241 -40.614 136.325C-27.7466 152.976 -18.4966 174.105 -12.9165 198.711C-3.85555 238.087 -4.16167 286.23 -14.2376 338.823C-26.6011 403.696 -53.3475 480.927 -54.928 537.737C-55.3796 554.079 -53.5767 568.561 -48.7329 580.713C-30.2846 626.611 27.5152 612.342 81.4999 570.524C123.234 538.16 165.751 488.31 204.544 434.751C217.266 417.28 229.725 399.451 241.87 381.809C291.706 309.717 342.382 235.062 401.729 175.95C457.791 120.172 526.214 82.4648 561.875 106.581C591.645 126.388 593.053 180.643 608.634 219.312C633.972 282.33 694.695 296.4 753.092 298.363C759.595 298.612 766.184 298.722 772.861 298.694C825.333 299.034 878.87 296.761 918.709 326.035C928.831 333.408 937.694 343.077 945.282 354.453C982.889 410.929 991.541 511.918 966.179 608.006" stroke="#8223F8" stroke-width="2.19441" stroke-miterlimit="10"/>
<path d="M-192.739 93.2175C-126.236 71.6959 -69.2355 83.6026 -35.1444 125.673C-21.9975 141.727 -12.398 162.303 -6.22373 186.125C3.60614 224.442 4.13886 271.568 -4.88853 323.278C-15.9588 387.036 -41.1848 463.103 -43.3071 520.15C-43.8985 536.404 -42.4102 551.073 -38.0383 563.507C-21.495 610.713 32.338 600.7 84.6979 563.46C125.908 534.245 169.526 486.059 209.439 433.208C222.51 415.959 235.231 398.489 247.883 380.974C299.258 309.856 351.489 235.993 411.728 177.638C467.546 123.639 534.99 86.8587 571.088 109.511C601.172 128.358 604.205 180.354 619.891 218.702C645.281 281.174 701.741 299.506 755.594 306.327C761.607 307.039 767.62 307.751 773.72 308.325C821.91 313.108 870.921 315.512 907.772 347.341C917.159 355.409 925.306 365.592 932.405 377.432C967.46 435.773 977.441 535.282 957.531 624.767" stroke="#8223F8" stroke-width="2.19441" stroke-miterlimit="10"/>
<path d="M-188.022 85.7611C-121.607 63.6041 -64.5016 74.4169 -29.5892 114.88C-16.1628 130.338 -6.12641 150.224 0.397303 173.494C10.9087 210.888 12.4375 256.905 4.3888 307.688C-5.40569 370.513 -29.0937 445.233 -31.7578 502.517C-32.5065 518.864 -31.3329 533.721 -27.5028 546.393C-12.7071 594.812 37.0017 589.15 87.7194 556.671C128.248 530.698 173.143 483.9 214.226 431.984C227.647 414.956 240.788 397.751 253.859 380.502C306.79 310.175 360.56 237.285 421.848 179.595C477.438 127.192 543.974 91.3833 580.403 112.892C610.96 130.684 615.618 180.422 631.163 218.682C656.449 280.7 708.889 303.062 758.041 314.835C763.547 316.193 769.071 317.369 774.594 318.544C818.66 327.678 862.988 334.851 896.85 369.237C905.434 377.956 913.022 388.558 919.561 400.817C952.065 461.024 963.373 559.053 948.985 641.98" stroke="#8223F8" stroke-width="2.19441" stroke-miterlimit="10"/>
<path d="M-183.305 78.3074C-116.976 55.5149 -59.6093 65.1402 -24.103 104.046C-10.397 118.907 0.0762183 138.103 7.01933 160.865C18.2297 197.155 20.5798 242.338 13.667 292.1C5.16577 353.81 -17.0018 427.366 -20.2077 484.887C-21.0263 501.19 -20.2371 516.19 -16.809 529.187C-3.84835 578.959 41.8235 577.508 90.9865 549.653C131.061 526.873 176.988 481.694 219.19 430.486C232.943 413.862 246.521 396.74 259.942 379.712C314.411 310.359 369.736 238.26 431.915 181.327C487.262 130.703 552.819 95.8221 589.598 116.005C620.556 132.698 626.751 180.315 642.402 218.255C667.669 279.683 715.916 306.35 760.525 322.982C765.541 324.803 770.488 326.581 775.592 328.264C815.376 341.842 855.178 353.691 885.982 390.588C893.762 399.958 900.703 411.118 906.77 423.659C936.722 485.731 949.446 582.142 940.423 658.603" stroke="#8223F8" stroke-width="2.19441" stroke-miterlimit="10"/>
<path d="M-178.43 70.7601C-112.259 47.288 -54.7176 55.8637 -18.39 93.1624C-4.40445 107.427 6.41826 126.071 13.8856 148.004C25.8648 183.234 29.0538 227.402 23.2595 276.324C16.0515 336.92 -4.66558 409.266 -8.34338 467.069C-9.38921 483.421 -8.75737 498.516 -5.87102 511.75C5.18463 562.829 46.9421 565.862 94.3405 542.497C133.874 523.048 180.919 479.351 224.153 428.988C238.255 412.585 252.253 395.729 266.023 378.923C322.118 310.405 378.842 239.191 442.07 182.922C497.19 133.895 561.75 100.123 599.036 118.887C630.308 134.619 638.13 179.978 653.885 217.597C679.205 278.478 723.187 309.407 763.182 330.852C767.622 333.276 772.15 335.561 776.607 337.802C812.197 355.686 847.472 372.211 875.201 411.801C882.246 421.867 888.471 433.54 893.979 446.5C921.45 510.482 935.432 605.37 931.931 675.272" stroke="#8223F8" stroke-width="2.19441" stroke-miterlimit="10"/>
<path d="M-173.712 63.3046C-107.716 39.3351 -49.8948 46.5407 -12.8334 82.3704C1.50163 96.0831 12.6912 113.992 20.5081 135.374C33.1688 169.681 37.2839 212.695 32.5382 260.734C26.6234 320.215 7.42675 391.397 3.20716 449.437C2.0914 465.745 2.33883 480.982 4.73585 494.68C13.9565 547.112 51.7294 554.583 97.5206 535.614C136.513 519.496 184.695 477.099 229.03 427.626C243.552 411.489 257.899 394.854 272.019 378.269C329.582 310.681 387.861 240.258 452.051 184.791C506.786 137.454 570.508 104.698 608.213 122.181C639.957 136.857 649.404 179.958 665.019 217.489C690.234 277.916 730.109 313.013 765.474 339.455C769.424 342.342 773.375 345.229 777.326 348.116C808.704 370.489 839.383 391.645 863.966 433.885C870.208 444.602 875.786 456.833 880.892 470.118C905.811 535.966 921.121 629.374 923.073 692.672" stroke="#8223F8" stroke-width="2.19441" stroke-miterlimit="10"/>
<path d="M-168.994 55.8502C-103.086 31.2453 -45.1599 37.3572 -7.27722 71.5799C7.33739 84.6961 18.8765 102.053 27.2 122.788C40.5597 155.992 45.5836 198.033 41.8864 245.19C37.2649 303.555 19.5188 373.529 14.8273 431.85C13.4844 448.208 13.5745 463.539 15.4297 477.474C22.8153 531.258 56.6739 543.212 100.63 528.689C139.152 515.946 188.382 474.986 233.836 426.222C248.707 410.306 263.317 394.03 277.944 377.573C337.133 310.819 396.898 241.144 462.049 186.479C516.558 140.738 579.283 109.092 617.425 125.111C649.571 138.688 660.555 179.669 676.275 216.879C701.472 276.716 737.154 316.119 767.974 347.419C771.418 350.952 774.88 354.302 778.341 357.653C805.525 384.332 831.591 410.302 853.185 455.097C858.623 466.466 863.642 479.116 868.189 492.821C890.556 560.533 907.125 652.418 914.668 709.201" stroke="#8223F8" stroke-width="2.19441" stroke-miterlimit="10"/>
<path d="M-164.276 48.3939C-98.455 23.1536 -40.3372 28.0336 -1.72068 60.7872C13.1735 73.307 25.0795 89.9294 33.9099 110.019C48.0384 142.162 53.9011 183.188 51.1651 229.599C47.9067 286.894 31.6111 355.659 26.3779 414.217C24.965 430.53 24.5832 446.143 26.1239 460.265C31.6919 515.219 61.5311 531.977 103.898 521.668C141.86 512.439 192.315 472.64 238.712 424.86C253.934 409.165 268.963 393.155 283.939 376.918C344.596 311.094 405.917 242.211 472.03 188.347C526.242 144.158 588.129 113.528 626.602 128.404C659.063 141.02 671.741 179.786 687.496 216.632C712.659 276.06 744.181 319.404 770.371 355.701C773.325 359.697 776.21 363.65 779.095 367.602C802.067 398.769 823.537 429.371 842.142 476.722C846.846 488.786 851.149 501.949 855.136 516.074C874.952 585.652 892.936 675.918 905.845 726.237" stroke="#8223F8" stroke-width="2.19441" stroke-miterlimit="10"/>
<path d="M-159.486 40.9829C-93.8229 15.0629 -35.5304 18.8934 3.9073 50.04C19.081 61.9633 31.4239 77.8954 40.6037 97.4327C55.4138 128.654 62.1852 168.708 60.5153 214.054C58.5501 270.233 43.775 337.834 38.0873 396.491C36.4471 412.854 35.9081 428.561 36.8195 443.058C40.5525 499.364 66.4599 520.787 107.01 514.742C144.396 509.208 195.934 470.482 243.521 423.454C259.074 408.163 274.54 392.236 289.866 376.221C352.149 311.232 414.956 243.096 482.1 190.078C536.014 147.442 596.975 117.966 635.798 131.515C668.73 143.077 682.965 179.541 698.65 216.342C723.795 275.179 751.122 322.829 772.768 363.983C775.146 368.582 777.612 373.042 779.92 377.597C798.698 413.069 815.554 448.485 831.102 498.347C835.002 511.063 838.657 524.784 842.243 539.234C859.577 610.721 878.819 699.464 897.337 743.085" stroke="#8223F8" stroke-width="2.19441" stroke-miterlimit="10"/>
<path d="M-154.771 33.5316C-89.2827 7.11426 -30.7108 9.57483 9.46078 39.2524C24.9141 50.5793 37.6064 65.9591 47.3804 84.7123C62.9594 114.873 70.5695 153.912 69.9482 198.374C69.2762 253.439 56.0216 319.875 49.792 378.769C48.082 395.088 47.1584 410.938 47.598 425.717C49.4085 483.513 71.2967 509.739 110.361 507.588C147.171 505.75 199.951 468.002 248.639 421.865C264.542 406.795 280.427 391.133 296.103 375.339C359.854 311.281 424.147 243.891 492.322 191.719C545.94 150.635 606.062 122.175 645.304 134.443C678.638 144.906 694.41 179.249 710.2 215.73C735.24 274.114 758.461 325.932 775.494 371.9C777.452 377.007 779.271 382.025 781.159 387.087C795.656 427.004 807.986 467.096 820.458 519.651C823.624 533.062 826.563 547.296 829.589 562.166C844.372 635.519 864.942 722.782 888.982 759.844" stroke="#8223F8" stroke-width="2.19441" stroke-miterlimit="10"/>
<path d="M-149.966 25.9401C-84.565 -1.11263 -25.8885 0.254137 15.1043 28.3246C30.8372 39.0551 43.9664 53.7447 54.0898 71.9457C70.3677 101.002 78.8866 139.069 79.3138 182.648C79.8478 236.736 68.2009 301.869 61.4296 361.001C59.5623 377.414 58.4115 393.313 58.3792 408.373C58.2848 467.477 76.2236 498.551 113.559 500.526C149.793 502.383 203.726 465.752 253.445 420.461C269.767 405.656 286.003 390.216 302.028 374.644C367.405 311.42 433.113 244.733 502.32 193.408C555.641 153.876 614.837 126.57 654.429 137.513C688.234 146.92 705.544 179.143 721.211 215.354C746.304 273.19 765.261 329.27 777.662 380.235C779.044 385.943 780.443 391.469 781.685 397.088C792.058 441.355 799.634 486.173 809.118 541.284C811.48 555.346 813.859 570 816.327 585.289C828.558 660.507 850.456 746.291 879.948 776.75" stroke="#8223F8" stroke-width="2.19441" stroke-miterlimit="10"/>
<path d="M-145.178 18.5277C-79.8651 -9.16053 -20.9964 -9.0257 20.7302 17.5758C36.8125 27.754 50.2213 41.8472 60.7816 59.358C77.741 87.4924 87.1861 124.405 88.6618 167.102C90.5589 220.119 80.3626 284.043 73.0495 343.412C71.0424 359.736 69.4897 375.961 68.9855 391.303C67.0561 451.758 80.8007 487.912 116.738 493.642C152.151 499.427 207.5 463.499 258.321 419.098C274.993 404.515 291.49 389.434 308.093 374.033C374.938 311.739 442.307 245.523 512.371 195.32C565.395 157.34 623.752 131.05 663.762 140.711C697.97 149.02 716.817 179.122 732.59 215.013C757.664 272.258 772.515 332.506 780.215 388.422C781.108 394.594 781.843 400.86 782.666 406.988C788.757 455.699 791.807 505.192 798.302 562.859C799.86 577.572 801.593 592.783 803.588 608.354C813.268 685.437 836.582 769.603 871.509 793.641" stroke="#8223F8" stroke-width="2.19441" stroke-miterlimit="10"/>
<path d="M-140.457 11.0708C-75.3009 -17.2971 -16.2577 -18.2117 26.2902 6.78272C42.6521 16.3645 56.4977 29.7674 67.5648 46.6322C85.2931 73.7064 95.5769 109.603 98.1013 151.417C101.292 203.319 92.6157 266.079 84.7608 325.684C82.5964 342.102 80.8164 358.377 79.8404 374C76.006 435.764 85.5567 476.997 120.079 486.665C154.741 496.421 211.419 461.334 263.358 417.641C280.38 403.279 297.297 388.464 314.249 373.285C382.72 311.826 451.505 246.313 522.6 196.955C575.344 160.346 632.845 135.254 673.188 143.772C707.797 150.981 728.34 178.87 744.059 214.533C769.099 271.37 779.773 335.741 782.93 396.516C783.245 403.29 783.561 410.063 783.824 416.61C785.704 469.81 784.158 523.935 787.665 584.157C788.489 599.566 789.505 615.291 791.011 631.325C798.209 710.318 822.781 792.96 863.161 810.395" stroke="#8223F8" stroke-width="2.19441" stroke-miterlimit="10"/>
<path d="M-135.738 3.61611C-70.6695 -25.3872 -11.4342 -27.5337 31.8475 -4.00826C48.4889 4.97708 62.684 17.8278 74.1879 34.0023C92.6851 60.0164 103.878 94.9417 107.381 135.828C111.864 186.615 104.709 248.21 96.3122 308.053C94.0778 324.427 91.9133 340.845 90.4653 356.749C84.726 419.821 89.9953 466.271 123.207 479.557C157.049 493.241 215.125 459.039 268.183 416.054C285.537 402.096 302.891 387.364 320.192 372.405C390.219 311.738 460.507 246.789 532.529 198.599C584.907 163.497 641.639 139.465 682.243 146.795C717.254 152.906 739.335 178.674 755.072 214.155C780.094 270.4 786.573 339.078 785.117 404.667C785.013 411.948 784.682 419.279 784.439 426.473C782.124 483.978 776.052 542.779 776.325 605.789C776.433 621.711 776.803 637.993 777.75 654.446C782.483 735.167 808.297 816.467 854.198 827.343" stroke="#8223F8" stroke-width="2.19441" stroke-miterlimit="10"/>
<path d="M-131.022 -3.83758C-66.1284 -33.3382 -6.70101 -36.7166 37.4019 -14.7982C54.3229 -6.40935 68.9548 5.75113 80.8781 21.4177C99.9869 46.4654 112.088 80.419 116.727 120.284C122.504 169.956 116.869 230.387 107.93 290.467C105.469 306.89 102.99 323.496 101.14 339.726C93.5656 404.149 94.571 455.635 126.368 472.859C159.371 490.653 218.881 456.971 272.953 415.015C290.656 401.277 308.43 386.811 326.081 372.074C397.646 312.38 469.437 247.996 542.49 200.652C594.659 166.964 650.464 144.086 691.488 150.135C726.971 155.19 750.519 178.794 766.361 213.955C791.278 269.747 793.651 342.593 787.651 413.04C786.97 420.923 786.22 428.762 785.4 436.557C778.804 498.506 768.206 561.983 765.491 627.549C764.864 644.167 764.588 661.006 764.905 677.834C767.087 760.42 794.228 840.241 845.582 844.514" stroke="#8223F8" stroke-width="2.19441" stroke-miterlimit="10"/>
<path d="M-126.233 -11.2511C-61.4271 -41.3872 -1.80764 -45.9975 42.9592 -25.5923C60.1597 -17.7999 75.2285 -6.32971 87.5887 8.6466C107.466 32.6342 120.406 65.572 126.094 104.554C133.164 153.111 129.067 212.195 119.569 272.694C117.038 289.073 114.244 305.866 111.852 322.334C102.286 388.203 100.914 442.052 129.496 465.748C159.529 490.556 222.587 454.673 277.777 413.424C295.9 399.953 313.954 385.663 332.024 371.192C405.145 312.289 478.527 248.332 552.489 202.336C604.378 170.018 659.24 148.477 700.614 153.2C736.498 157.156 761.741 178.546 777.444 213.618C802.413 268.863 800.522 345.971 789.908 421.232C788.738 429.579 787.411 438.02 786.102 446.278C775.382 512.578 760.1 580.824 754.326 648.901C752.896 666.17 751.973 683.567 751.888 700.721C751.519 785.172 779.988 863.514 836.864 861.227" stroke="#8223F8" stroke-width="2.19441" stroke-miterlimit="10"/>
<path d="M-121.429 -18.8393C-56.7799 -49.6551 3.01406 -55.3149 48.6021 -36.5168C66.0822 -29.3209 81.5005 -18.4028 94.2975 -4.11675C114.857 18.9488 128.723 50.7326 135.459 88.8311C143.892 136.317 141.246 194.193 131.206 254.929C128.447 271.358 125.427 288.2 122.563 304.949C111.091 372.127 103.464 434.003 132.78 458.551C163.81 484.569 226.536 452.15 282.828 411.792C301.3 398.542 319.773 384.518 338.193 370.267C412.852 312.338 487.755 248.764 562.644 203.934C614.254 172.987 668.172 152.781 710.052 156.085C746.408 158.986 773.119 178.211 788.926 212.964C813.791 267.756 807.88 348.893 792.548 429.288C790.801 438.237 789.055 447.185 787.169 456.046C772.167 526.789 752.359 599.711 743.597 670.344C741.363 688.265 739.793 706.219 739.237 723.654C736.316 809.971 766.131 886.65 828.441 877.943" stroke="#8223F8" stroke-width="2.19441" stroke-miterlimit="10"/>
<path d="M-116.71 -26.2937C-52.1493 -57.7449 7.83677 -64.6366 54.1587 -47.3076C71.9882 -40.6638 87.7734 -30.4802 101.077 -16.8401C122.335 5.12096 137.11 35.9331 144.895 73.1485C154.621 119.52 153.495 176.231 142.914 237.204C140.085 253.589 136.593 270.713 133.327 287.787C119.863 356.41 107.972 423.322 135.96 451.67C165.924 481.848 230.223 450.037 287.617 410.569C306.439 397.54 325.244 383.92 344.101 369.753C420.316 312.615 496.81 249.467 572.625 205.804C623.955 176.226 677.017 157.219 719.159 159.335C755.917 161.138 784.236 178.287 800.078 212.674C824.925 266.875 814.82 352.318 794.874 437.528C792.708 446.984 790.315 456.49 787.923 465.997C768.797 541.091 744.305 618.782 732.555 691.971C729.587 710.587 727.388 728.916 726.185 746.909C720.782 835.135 751.855 910.291 819.688 895.024" stroke="#8223F8" stroke-width="2.19441" stroke-miterlimit="10"/>
<path d="M-111.923 -33.703C-22.771 -78.0129 58.3659 -76.5456 107.769 -29.4246C157.26 17.5583 174.493 109.476 154.534 219.618C139.517 302.146 105.591 404.803 139.228 444.652C168.056 478.945 234.156 447.693 292.581 409.072C389.332 345.017 487.006 260.471 582.693 207.537C678.45 154.647 777.413 138.781 811.387 212.292C839.049 271.948 818.18 376.101 788.833 475.855C759.487 575.609 721.331 679.842 713.29 770.071C705.248 860.301 737.737 933.839 811.091 912.013" stroke="#8223F8" stroke-width="2.19441" stroke-miterlimit="10"/>
</g>
</svg>
